{"title":"A Night in Old Mexico 2013 UNRATED HDRIP x264 AC3 TiTAN","uid":10162135,"size":1149217895,"categoryP":"video","categoryS":"movies","magnet":"?xt=urn:btih:2fe499709e047f8a7d6b2dd4485afccf1f5dbc22&amp;dn=A+Night+in+Old+Mexico+2013+UNRATED+HDRIP+x264+AC3+TiTAN&amp;tr=udp%3A%2F%2Ftracker.openbittorrent.com%3A80&amp;tr=udp%3A%2F%2Fopen.demonii.com%3A1337&amp;tr=udp%3A%2F%2Ftracker.coppersurfer.tk%3A6969&amp;tr=udp%3A%2F%2Fexodus.desync.com%3A6969","seeders":1,"leechers":0,"uploader":"Thhaque","files":-1,"time":1400311768,"description":"Poster:\n &lt;a href=&quot;\nhttp://i.imgur.com/5qLsMlr.jpg&quot; rel=&quot;nofollow&quot; target=&quot;_NEW&quot;&gt;\nhttp://i.imgur.com/5qLsMlr.jpg&lt;/a&gt;\n\n\niMDB: \n &lt;a href=&quot;\nhttp://www.imdb.com/title/tt2308260/&quot; rel=&quot;nofollow&quot; target=&quot;_NEW&quot;&gt;\nhttp://www.imdb.com/title/tt2308260/&lt;/a&gt;\n\n\nGeneral\n\n\nFormat : Matroska\n\nFormat version : Version 2\n\nFile size : 1.07 GiB\n\nDuration : 1h 44mn\n\nOverall bit rate mode : Variable\n\nOverall bit rate : 1 473 Kbps\n\nEncoded date : UTC 2014-05-16 08:21:00\n\nWriting application : mkvmerge v6.9.1 ('Blue Panther') 32bit built on Apr 18 2014 18:15:44\n\nWriting library : libebml v1.3.0 + libmatroska v1.4.1\n\n\n\n[color=orange]Video[/color]\n\nID : 1\n\nFormat : AVC\n\nFormat/Info : Advanced Video Codec\n\nFormat profile : &lt;a class=&quot;__cf_email__&quot; href=&quot;/cdn-cgi/l/email-protection&quot; data-cfemail=&quot;1a52737d725a562e342b&quot;&gt;[email&amp;#160;protected]&lt;/a&gt;&lt;script cf-hash='f9e31' type=&quot;text/javascript&quot;&gt;\n/* &lt;![CDATA[ */!function(){try{var t=&quot;currentScript&quot;in document?document.currentScript:function(){for(var t=document.getElementsByTagName(&quot;script&quot;),e=t.length;e--;)if(t[e].getAttribute(&quot;cf-hash&quot;))return t[e]}();if(t&amp;&amp;t.previousSibling){var e,r,n,i,c=t.previousSibling,a=c.getAttribute(&quot;data-cfemail&quot;);if(a){for(e=&quot;&quot;,r=parseInt(a.substr(0,2),16),n=2;a.length-n;n+=2)i=parseInt(a.substr(n,2),16)^r,e+=String.fromCharCode(i);e=document.createTextNode(e),c.parentNode.replaceChild(e,c)}}}catch(u){}}();/* ]]&gt; */&lt;/script&gt;\n\nFormat settings, CABAC : Yes\n\nFormat settings, ReFrames : 3 frames\n\nCodec ID : V_MPEG4/ISO/AVC\n\nDuration : 1h 44mn\n\nBit rate mode : Variable\n\nBit rate : 1 060 Kbps\n\nMaximum bit rate : 40.0 Mbps\n\nWidth : 720 pixels\n\nHeight : 304 pixels\n\nDisplay aspect ratio : 2.35:1\n\nFrame rate mode : Constant\n\nFrame rate : 23.976 fps\n\nColor space : YUV\n\nChroma subsampling : 4:2:0\n\nBit depth : 8 bits\n\nScan type : Progressive\n\nBits/(Pixel*Frame) : 0.202\n\nStream size : 788 MiB (72%)\n\nWriting library : x264 core 142 r2409 d6b4e63\n\nDefault : Yes\n\nForced : No\n\nColor primaries : BT.709\n\nTransfer characteristics : BT.709\n\nMatrix coefficients : BT.709\n\n\n\n[color=orange]Audio[/color]\n\nID : 2\n\nFormat : AC-3\n\nFormat/Info : Audio Coding 3\n\nMode extension : CM (complete main)\n\nFormat settings, Endianness : Big\n\nCodec ID : A_AC3\n\nDuration : 1h 44mn\n\nBit rate mode : Constant\n\nBit rate : 384 Kbps\n\nChannel(s) : 6 channels\n\nChannel positions : Front: L C R, Side: L R, LFE\n\nSampling rate : 48.0 KHz\n\nBit depth : 16 bits\n\nCompression mode : Lossy\n\nStream size : 286 MiB (26%)\n\nLanguage : English\n\nDefault : Yes\n\nForced : No\n\n\nScreens:\n\n &lt;a href=&quot;\nhttp://i.imgur.com/1X8HHD6.png&quot; rel=&quot;nofollow&quot; target=&quot;_NEW&quot;&gt;\nhttp://i.imgur.com/1X8HHD6.png&lt;/a&gt;\n &lt;a href=&quot;\nhttp://i.imgur.com/fyMOTF1.png&quot; rel=&quot;nofollow&quot; target=&quot;_NEW&quot;&gt;\nhttp://i.imgur.com/fyMOTF1.png&lt;/a&gt;\n &lt;a href=&quot;\nhttp://i.imgur.com/fx30b78.png&quot; rel=&quot;nofollow&quot; target=&quot;_NEW&quot;&gt;\nhttp://i.imgur.com/fx30b78.png&lt;/a&gt;\n &lt;a href=&quot;\nhttp://i.imgur.com/QgG4TsO.png&quot; rel=&quot;nofollow&quot; target=&quot;_NEW&quot;&gt;\nhttp://i.imgur.com/QgG4TsO.png&lt;/a&gt;","torrent":{"xt":"urn:btih:2fe499709e047f8a7d6b2dd4485afccf1f5dbc22","amp;dn":"A+Night+in+Old+Mexico+2013+UNRATED+HDRIP+x264+AC3+TiTAN","amp;tr":["udp%3A%2F%2Ftracker.openbittorrent.com%3A80","udp%3A%2F%2Fopen.demonii.com%3A1337","udp%3A%2F%2Ftracker.coppersurfer.tk%3A6969","udp%3A%2F%2Fexodus.desync.com%3A6969"],"infoHash":"2fe499709e047f8a7d6b2dd4485afccf1f5dbc22","infoHashBuffer":{"type":"Buffer","data":[47,228,153,112,158,4,127,138,125,107,45,212,72,90,252,207,31,93,188,34]},"announce":[],"urlList":[]}}